{
	"asset":{
		"generator":"Khronos glTF Blender I/O v4.5.51",
		"version":"2.0"
	},
	"scene":0,
	"scenes":[
		{
			"name":"Scene",
			"nodes":[
				0
			]
		}
	],
	"nodes":[
		{
			"mesh":0,
			"name":"Mesh1.0",
			"rotation":[
				0,
				0,
				-0.0009999996982514858,
				1
			],
			"scale":[
				1,
				1.149999737739563,
				1
			],
			"translation":[
				-0.30000001192092896,
				-0.15000000596046448,
				0
			]
		}
	],
	"meshes":[
		{
			"name":"Mesh1",
			"primitives":[
				{
					"attributes":{
						"POSITION":0,
						"NORMAL":1
					},
					"indices":2
				}
			]
		}
	],
	"accessors":[
		{
			"bufferView":0,
			"componentType":5126,
			"count":322815,
			"max":[
				3.140230894088745,
				0.5,
				1.275541067123413
			],
			"min":[
				-3.1454579830169678,
				0,
				-1.281125545501709
			],
			"type":"VEC3"
		},
		{
			"bufferView":1,
			"componentType":5126,
			"count":322815,
			"type":"VEC3"
		},
		{
			"bufferView":2,
			"componentType":5125,
			"count":323889,
			"type":"SCALAR"
		}
	],
	"bufferViews":[
		{
			"buffer":0,
			"byteLength":3873780,
			"byteOffset":0,
			"target":34962
		},
		{
			"buffer":0,
			"byteLength":3873780,
			"byteOffset":3873780,
			"target":34962
		},
		{
			"buffer":0,
			"byteLength":1295556,
			"byteOffset":7747560,
			"target":34963
		}
	],
	"buffers":[
		{
			"byteLength":9043116,
			"uri":"boat.bin"
		}
	]
}
