{
	"asset":{
		"generator":"Khronos glTF Blender I/O v4.5.51",
		"version":"2.0"
	},
	"scene":0,
	"scenes":[
		{
			"name":"Scene",
			"nodes":[
				0
			]
		}
	],
	"nodes":[
		{
			"mesh":0,
			"name":"Mesh1.0",
			"rotation":[
				-0.7071068286895752,
				0,
				0,
				0.7071068286895752
			],
			"translation":[
				-0.04500000178813934,
				0.005799999926239252,
				0.8999999761581421
			]
		}
	],
	"meshes":[
		{
			"name":"Mesh1",
			"primitives":[
				{
					"attributes":{
						"POSITION":0,
						"NORMAL":1
					},
					"indices":2
				}
			]
		}
	],
	"accessors":[
		{
			"bufferView":0,
			"componentType":5126,
			"count":95761,
			"max":[
				0.12999260425567627,
				2.9000000953674316,
				0.033861204981803894
			],
			"min":[
				-0.1326168179512024,
				1.1920928955078125e-07,
				-0.03588668629527092
			],
			"type":"VEC3"
		},
		{
			"bufferView":1,
			"componentType":5126,
			"count":95761,
			"type":"VEC3"
		},
		{
			"bufferView":2,
			"componentType":5125,
			"count":96006,
			"type":"SCALAR"
		}
	],
	"bufferViews":[
		{
			"buffer":0,
			"byteLength":1149132,
			"byteOffset":0,
			"target":34962
		},
		{
			"buffer":0,
			"byteLength":1149132,
			"byteOffset":1149132,
			"target":34962
		},
		{
			"buffer":0,
			"byteLength":384024,
			"byteOffset":2298264,
			"target":34963
		}
	],
	"buffers":[
		{
			"byteLength":2682288,
			"uri":"right_oar.bin"
		}
	]
}
